<svg xmlns="http://www.w3.org/2000/svg">
  <defs>
    <symbol viewBox="0 0 50 50" id="icon-checked">
      <path d="M25 2C12.317 2 2 12.317 2 25s10.317 23 23 23 23-10.317 23-23c0-4.56-1.34-8.81-3.637-12.389l-1.369 1.618A20.846 20.846 0 0146 25c0 11.579-9.421 21-21 21S4 36.579 4 25 13.421 4 25 4c5.443 0 10.394 2.1 14.129 5.51l1.309-1.545A22.912 22.912 0 0025 2zm18.236 5.754l-19.322 22.8-8.133-7.585-1.363 1.463 9.666 9.015 20.68-24.4-1.528-1.293z"/>
    </symbol>
    <symbol viewBox="0 0 50 50" id="icon-add">
      <path d="M 25 2 C 12.309295 2 2 12.309295 2 25 C 2 37.690705 12.309295 48 25 48 C 37.690705 48 48 37.690705 48 25 C 48 12.309295 37.690705 2 25 2 z M 25 4 C 36.609824 4 46 13.390176 46 25 C 46 36.609824 36.609824 46 25 46 C 13.390176 46 4 36.609824 4 25 C 4 13.390176 13.390176 4 25 4 z M 24 13 L 24 24 L 13 24 L 13 26 L 24 26 L 24 37 L 26 37 L 26 26 L 37 26 L 37 24 L 26 24 L 26 13 L 24 13 z"/>
    </symbol>
    <symbol viewBox="0 0 50 50" id="icon-delete">
      <path d="M21 2c-1.645 0-3 1.355-3 3v2h-7.846a1 1 0 00-.17-.014A1 1 0 009.84 7H8a1 1 0 100 2h1v36c0 1.645 1.355 3 3 3h26c1.645 0 3-1.355 3-3V9h1a1 1 0 100-2h-1.832a1 1 0 00-.326 0H32V5c0-1.645-1.355-3-3-3h-8zm0 2h8c.555 0 1 .445 1 1v2H20V5c0-.555.445-1 1-1zM11 9h7.832a1 1 0 00.326 0h11.674a1 1 0 00.326 0H39v36c0 .555-.445 1-1 1H12c-.555 0-1-.445-1-1V9zm7.984 4.986A1 1 0 0018 15v25a1 1 0 102 0V15a1 1 0 00-1.016-1.014zm6 0A1 1 0 0024 15v25a1 1 0 102 0V15a1 1 0 00-1.016-1.014zm6 0A1 1 0 0030 15v25a1 1 0 102 0V15a1 1 0 00-1.016-1.014z"/>
    </symbol>
    <symbol viewBox="0 0 50 50" id="icon-delete-sign">
      <path d="M7.719 6.281L6.28 7.72 23.563 25 6.28 42.281 7.72 43.72 25 26.437 42.281 43.72l1.438-1.438L26.437 25 43.72 7.719 42.28 6.28 25 23.563z"/>
    </symbol>
    <symbol viewBox="0 0 50 50" id="icon-info">
      <path d="M25 2C12.31 2 2 12.31 2 25s10.31 23 23 23 23-10.31 23-23S37.69 2 25 2zm0 2c11.61 0 21 9.39 21 21s-9.39 21-21 21S4 36.61 4 25 13.39 4 25 4zm0 7a3 3 0 00-3 3 3 3 0 003 3 3 3 0 003-3 3 3 0 00-3-3zm-4 10v2h2v13h-2v2h8v-2h-2V21h-6z"/>
    </symbol>
    <symbol viewBox="0 0 50 50" id="icon-instagram">
      <path d="M16 3C8.855 3 3 8.855 3 16v18c0 7.145 5.855 13 13 13h18c7.145 0 13-5.855 13-13V16c0-7.145-5.855-13-13-13H16zm0 2h18c6.055 0 11 4.945 11 11v18c0 6.055-4.945 11-11 11H16C9.945 45 5 40.055 5 34V16C5 9.945 9.945 5 16 5zm21 6c-1.1 0-2 .9-2 2s.9 2 2 2 2-.9 2-2-.9-2-2-2zm-12 3c-6.045 0-11 4.955-11 11s4.955 11 11 11 11-4.955 11-11-4.955-11-11-11zm0 2c4.955 0 9 4.045 9 9s-4.045 9-9 9-9-4.045-9-9 4.045-9 9-9z"/>
    </symbol>
    <symbol viewBox="0 0 50 50" id="icon-menu">
      <path d="M0 9v2h50V9zm0 15v2h50v-2zm0 15v2h50v-2z"/>
    </symbol>
    <symbol viewBox="0 0 50 50" id="icon-search">
      <path d="M21 3C11.655 3 4 10.655 4 20c0 9.345 7.655 17 17 17 3.701 0 7.127-1.213 9.928-3.244l13.158 13.158 2.828-2.828-13.039-13.04C36.437 28.069 38 24.21 38 20c0-9.345-7.655-17-17-17zm0 2c8.255 0 15 6.745 15 15 0 8.255-6.745 15-15 15-8.255 0-15-6.745-15-15 0-8.255 6.745-15 15-15z"/>
    </symbol>
  </defs>
</svg>