<svg width="166" height="78" viewBox="0 0 166 78" fill="none" xmlns="http://www.w3.org/2000/svg">
<g filter="url(#filter0_d_201_4)">
<path d="M37.0092 11V25H39.4292V11H37.0092ZM44.6292 11L38.7092 17.62L44.8692 25H47.7692L41.5692 17.56L47.4692 11H44.6292ZM59.632 11H57.092L53.052 19.92L54.272 19.98L50.532 11H47.752L52.372 20.82L50.532 25H53.052L59.632 11ZM72.0108 11H61.7108V19.6C61.7108 20.0933 61.6641 20.5467 61.5708 20.96C61.4908 21.3733 61.3641 21.7333 61.1908 22.04C61.0308 22.3333 60.8308 22.5667 60.5908 22.74C60.3508 22.9 60.0708 22.98 59.7508 22.98V25C60.7241 25 61.5241 24.78 62.1508 24.34C62.7908 23.9 63.2641 23.2867 63.5708 22.5C63.8774 21.7 64.0308 20.7867 64.0308 19.76V13.18H69.6108V25H72.0108V11ZM75.1733 11V25H77.5333V11H75.1733ZM76.5733 18.38H79.3933C79.9266 18.38 80.3933 18.4667 80.7933 18.64C81.2066 18.8 81.5266 19.0533 81.7533 19.4C81.9799 19.7333 82.0933 20.1533 82.0933 20.66C82.0933 21.1533 81.9799 21.5733 81.7533 21.92C81.5266 22.2533 81.2066 22.5067 80.7933 22.68C80.3933 22.84 79.9266 22.92 79.3933 22.92H76.5733V25H79.3933C80.4066 25 81.2866 24.8267 82.0333 24.48C82.7933 24.12 83.3799 23.6133 83.7933 22.96C84.2066 22.3067 84.4133 21.54 84.4133 20.66C84.4133 19.7533 84.2066 18.98 83.7933 18.34C83.3799 17.6867 82.7933 17.1867 82.0333 16.84C81.2866 16.48 80.4066 16.3 79.3933 16.3H76.5733V18.38ZM83.3436 13.18H87.0236V25H89.4036V13.18H93.1036V11H83.3436V13.18ZM105.667 11H103.127L99.0872 19.92L100.307 19.98L96.5672 11H93.7872L98.4072 20.82L96.5672 25H99.0872L105.667 11ZM107.146 11V25H109.506V11H107.146ZM108.546 13.08H111.366C112.179 13.08 112.833 13.2733 113.326 13.66C113.819 14.0333 114.066 14.5933 114.066 15.34C114.066 16.0867 113.819 16.6533 113.326 17.04C112.833 17.4267 112.179 17.62 111.366 17.62H108.546V19.7H111.366C112.379 19.7 113.259 19.5267 114.006 19.18C114.766 18.82 115.353 18.3133 115.766 17.66C116.179 17.0067 116.386 16.2333 116.386 15.34C116.386 14.4467 116.179 13.68 115.766 13.04C115.353 12.3867 114.766 11.8867 114.006 11.54C113.259 11.18 112.379 11 111.366 11H108.546V13.08ZM118.982 21.4H126.382L125.922 19.4H119.422L118.982 21.4ZM122.642 14.96L124.862 20.16L124.922 20.74L126.822 25H129.482L122.642 10.22L115.802 25H118.462L120.402 20.62L120.442 20.1L122.642 14.96Z" fill="black"/>
</g>
<g filter="url(#filter1_d_201_4)">
<path d="M17.8239 49.09L23.1039 63.1H27.0639L17.8539 41.95L8.61387 63.1H12.5739L17.8239 49.09ZM25.6539 64V67.3H29.0139V60.82H6.66387V67.3H10.0239V64H25.6539ZM51.3662 46.81L51.5162 41.95L32.8562 60.19L32.7062 65.05L51.3662 46.81ZM36.1862 43H32.7062V65.05L36.1862 61.09V43ZM51.5162 41.95L48.0362 46V64H51.5162V41.95ZM62.593 53.71C63.793 53.71 64.903 53.59 65.923 53.35C66.963 53.09 67.853 52.72 68.593 52.24C69.353 51.76 69.943 51.19 70.363 50.53C70.783 49.87 70.993 49.14 70.993 48.34C70.993 47.3 70.703 46.36 70.123 45.52C69.563 44.66 68.743 43.97 67.663 43.45C66.583 42.93 65.273 42.67 63.733 42.67C62.213 42.67 60.903 42.93 59.803 43.45C58.703 43.95 57.853 44.64 57.253 45.52C56.673 46.4 56.383 47.42 56.383 48.58H59.713C59.713 48.02 59.883 47.52 60.223 47.08C60.563 46.64 61.033 46.3 61.633 46.06C62.253 45.8 62.953 45.67 63.733 45.67C64.553 45.67 65.233 45.79 65.773 46.03C66.333 46.27 66.743 46.62 67.003 47.08C67.283 47.52 67.423 48.02 67.423 48.58C67.423 49.18 67.233 49.73 66.853 50.23C66.493 50.71 65.953 51.1 65.233 51.4C64.513 51.68 63.633 51.82 62.593 51.82V53.71ZM63.703 64.36C65.403 64.36 66.833 64.11 67.993 63.61C69.173 63.11 70.063 62.41 70.663 61.51C71.283 60.61 71.593 59.57 71.593 58.39C71.593 56.97 71.193 55.83 70.393 54.97C69.613 54.11 68.543 53.48 67.183 53.08C65.823 52.66 64.293 52.45 62.593 52.45V54.46C63.713 54.46 64.673 54.6 65.473 54.88C66.293 55.16 66.923 55.56 67.363 56.08C67.803 56.6 68.023 57.24 68.023 58C68.023 59.04 67.653 59.85 66.913 60.43C66.173 61.01 65.083 61.3 63.643 61.3C62.683 61.3 61.863 61.17 61.183 60.91C60.523 60.63 60.013 60.25 59.653 59.77C59.293 59.27 59.083 58.68 59.023 58H55.483C55.483 58.86 55.653 59.68 55.993 60.46C56.333 61.22 56.843 61.9 57.523 62.5C58.223 63.08 59.083 63.54 60.103 63.88C61.123 64.2 62.323 64.36 63.703 64.36ZM77.1793 58.6H88.2793L87.5893 55.6H77.8393L77.1793 58.6ZM82.6693 48.94L85.9993 56.74L86.0893 57.61L88.9393 64H92.9293L82.6693 41.83L72.4093 64H76.3993L79.3093 57.43L79.3693 56.65L82.6693 48.94ZM114.032 46.81L114.182 41.95L95.5222 60.19L95.3722 65.05L114.032 46.81ZM98.8522 43H95.3722V65.05L98.8522 61.09V43ZM114.182 41.95L110.702 46V64H114.182V41.95ZM100.742 36.7C100.742 37.44 100.922 38.14 101.282 38.8C101.642 39.44 102.182 39.97 102.902 40.39C103.622 40.79 104.502 40.99 105.542 40.99C106.602 40.99 107.492 40.79 108.212 40.39C108.932 39.97 109.472 39.44 109.832 38.8C110.192 38.14 110.372 37.44 110.372 36.7H107.912C107.912 37 107.832 37.31 107.672 37.63C107.532 37.95 107.282 38.22 106.922 38.44C106.582 38.66 106.122 38.77 105.542 38.77C104.982 38.77 104.522 38.66 104.162 38.44C103.822 38.22 103.572 37.95 103.412 37.63C103.272 37.31 103.202 37 103.202 36.7H100.742ZM120.249 54.37H135.219V51.1H120.249V54.37ZM132.939 43V64H136.479V43H132.939ZM118.839 43V64H122.379V43H118.839ZM143.683 58.6H154.783L154.093 55.6H144.343L143.683 58.6ZM149.173 48.94L152.503 56.74L152.593 57.61L155.443 64H159.433L149.173 41.83L138.913 64H142.903L145.813 57.43L145.873 56.65L149.173 48.94Z" fill="black"/>
</g>
<defs>
<filter id="filter0_d_201_4" x="31.0092" y="8.22" width="104.473" height="26.78" filterUnits="userSpaceOnUse" color-interpolation-filters="sRGB">
<feFlood flood-opacity="0" result="BackgroundImageFix"/>
<feColorMatrix in="SourceAlpha" type="matrix" values="0 0 0 0 0 0 0 0 0 0 0 0 0 0 0 0 0 0 127 0" result="hardAlpha"/>
<feOffset dy="4"/>
<feGaussianBlur stdDeviation="3"/>
<feComposite in2="hardAlpha" operator="out"/>
<feColorMatrix type="matrix" values="0 0 0 0 0 0 0 0 0 0 0 0 0 0 0 0 0 0 0.25 0"/>
<feBlend mode="normal" in2="BackgroundImageFix" result="effect1_dropShadow_201_4"/>
<feBlend mode="normal" in="SourceGraphic" in2="effect1_dropShadow_201_4" result="shape"/>
</filter>
<filter id="filter1_d_201_4" x="0.663864" y="34.7" width="164.769" height="42.6" filterUnits="userSpaceOnUse" color-interpolation-filters="sRGB">
<feFlood flood-opacity="0" result="BackgroundImageFix"/>
<feColorMatrix in="SourceAlpha" type="matrix" values="0 0 0 0 0 0 0 0 0 0 0 0 0 0 0 0 0 0 127 0" result="hardAlpha"/>
<feOffset dy="4"/>
<feGaussianBlur stdDeviation="3"/>
<feComposite in2="hardAlpha" operator="out"/>
<feColorMatrix type="matrix" values="0 0 0 0 0 0 0 0 0 0 0 0 0 0 0 0 0 0 0.25 0"/>
<feBlend mode="normal" in2="BackgroundImageFix" result="effect1_dropShadow_201_4"/>
<feBlend mode="normal" in="SourceGraphic" in2="effect1_dropShadow_201_4" result="shape"/>
</filter>
</defs>
</svg>
