<svg width="126" height="27" viewBox="0 0 126 27" fill="none" xmlns="http://www.w3.org/2000/svg">
<path d="M0.988 0.799998H6.82V26H0.988V0.799998ZM35.9125 0.799998V26H31.1245L18.5605 10.7V26H12.8005V0.799998H17.6245L30.1525 16.1V0.799998H35.9125ZM50.1547 26.432C48.1627 26.432 46.2307 26.168 44.3587 25.64C42.5107 25.088 41.0227 24.38 39.8947 23.516L41.8747 19.124C42.9547 19.916 44.2387 20.552 45.7267 21.032C47.2147 21.512 48.7027 21.752 50.1907 21.752C51.8467 21.752 53.0707 21.512 53.8627 21.032C54.6547 20.528 55.0507 19.868 55.0507 19.052C55.0507 18.452 54.8107 17.96 54.3307 17.576C53.8747 17.168 53.2747 16.844 52.5307 16.604C51.8107 16.364 50.8267 16.1 49.5787 15.812C47.6587 15.356 46.0867 14.9 44.8627 14.444C43.6387 13.988 42.5827 13.256 41.6947 12.248C40.8307 11.24 40.3987 9.896 40.3987 8.216C40.3987 6.752 40.7947 5.432 41.5867 4.256C42.3787 3.056 43.5667 2.108 45.1507 1.412C46.7587 0.715999 48.7147 0.368 51.0187 0.368C52.6267 0.368 54.1987 0.559999 55.7347 0.943999C57.2707 1.328 58.6147 1.88 59.7667 2.6L57.9667 7.028C55.6387 5.708 53.3107 5.048 50.9827 5.048C49.3507 5.048 48.1387 5.312 47.3467 5.84C46.5787 6.368 46.1947 7.064 46.1947 7.928C46.1947 8.792 46.6387 9.44 47.5267 9.872C48.4387 10.28 49.8187 10.688 51.6667 11.096C53.5867 11.552 55.1587 12.008 56.3827 12.464C57.6067 12.92 58.6507 13.64 59.5147 14.624C60.4027 15.608 60.8467 16.94 60.8467 18.62C60.8467 20.06 60.4387 21.38 59.6227 22.58C58.8307 23.756 57.6307 24.692 56.0227 25.388C54.4147 26.084 52.4587 26.432 50.1547 26.432ZM64.8318 0.799998H70.6638V26H64.8318V0.799998ZM76.6443 0.799998H88.0923C90.8283 0.799998 93.2403 1.328 95.3283 2.384C97.4403 3.416 99.0723 4.88 100.224 6.776C101.4 8.672 101.988 10.88 101.988 13.4C101.988 15.92 101.4 18.128 100.224 20.024C99.0723 21.92 97.4403 23.396 95.3283 24.452C93.2403 25.484 90.8283 26 88.0923 26H76.6443V0.799998ZM87.8043 21.212C90.3243 21.212 92.3283 20.516 93.8163 19.124C95.3283 17.708 96.0843 15.8 96.0843 13.4C96.0843 11 95.3283 9.104 93.8163 7.712C92.3283 6.296 90.3243 5.588 87.8043 5.588H82.4763V21.212H87.8043ZM125.898 21.32V26H106.386V0.799998H125.43V5.48H112.182V10.952H123.882V15.488H112.182V21.32H125.898Z" fill="black"/>
</svg>
